HIERARCHY
ROOT Hips
{
	OFFSET	0.00	0.00	0.00
	CHANNELS 6 Xposition Yposition Zposition Zrotation Xrotation Yrotation
	JOINT LeftUpLeg
	{
		OFFSET	 0.126116	-0.014019	-0.065224
		CHANNELS 3 Zrotation Xrotation Yrotation
		JOINT LeftLeg
		{
			OFFSET	 0.000000	 0.000000	 0.569914
			CHANNELS 3 Zrotation Xrotation Yrotation
			JOINT LeftFoot
			{
				OFFSET	 0.000000	 0.000000	 0.544423
				CHANNELS 3 Zrotation Xrotation Yrotation
				JOINT LeftToeBase
				{
					OFFSET	 0.000000	 0.000000	 0.207117
					CHANNELS 3 Zrotation Xrotation Yrotation
					End Site
					{
						OFFSET	 0.000000	 0.000000	 0.207117
					}
				}
			}
		}
	}
	JOINT RightUpLeg
	{
		OFFSET	-0.124023	-0.008373	-0.065224
		CHANNELS 3 Zrotation Xrotation Yrotation
		JOINT RightLeg
		{
			OFFSET	 0.000000	 0.000000	 0.570047
			CHANNELS 3 Zrotation Xrotation Yrotation
			JOINT RightFoot
			{
				OFFSET	 0.000000	 0.000000	 0.544354
				CHANNELS 3 Zrotation Xrotation Yrotation
				JOINT RightToeBase
				{
					OFFSET	 0.000000	 0.000000	 0.207540
					CHANNELS 3 Zrotation Xrotation Yrotation
					End Site
					{
						OFFSET	 0.000000	 0.000000	 0.207540
					}
				}
			}
		}
	}
	JOINT Spine
	{
		OFFSET	 0.000184	-0.007763	 0.117403
		CHANNELS 3 Zrotation Xrotation Yrotation
		JOINT Spine1
		{
			OFFSET	 0.000000	 0.000000	 0.137269
			CHANNELS 3 Zrotation Xrotation Yrotation
			JOINT Spine2
			{
				OFFSET	 0.000000	 0.000000	 0.156879
				CHANNELS 3 Zrotation Xrotation Yrotation
				JOINT LeftShoulder
				{
					OFFSET	 0.080501	-0.002496	 0.160144
					CHANNELS 3 Zrotation Xrotation Yrotation
					JOINT LeftArm
					{
						OFFSET	 0.000000	 0.000000	 0.164363
						CHANNELS 3 Zrotation Xrotation Yrotation
						JOINT LeftForeArm
						{
							OFFSET	 0.000000	 0.000000	 0.364576
							CHANNELS 3 Zrotation Xrotation Yrotation
							JOINT LeftHand
							{
								OFFSET	 0.000000	 0.000000	 0.360812
								CHANNELS 3 Zrotation Xrotation Yrotation
								JOINT LeftHandIndex1
								{
									OFFSET	 0.000000	 0.000000	 0.086006
									CHANNELS 3 Zrotation Xrotation Yrotation
									JOINT LeftHandIndex2
									{
										OFFSET	 0.000000	 0.000000	 0.047236
										CHANNELS 3 Zrotation Xrotation Yrotation
										JOINT LeftHandIndex3
										{
											OFFSET	-0.004284	-0.000551	 0.038166
											CHANNELS 3 Zrotation Xrotation Yrotation
											End Site
											{
												OFFSET	-0.004284	-0.000551	 0.038166
											}
										}
									}
								}
							}
						}
					}
				}
				JOINT Neck
				{
					OFFSET	 0.000000	 0.000000	 0.176489
					CHANNELS 3 Zrotation Xrotation Yrotation
					JOINT Head
					{
						OFFSET	 0.000000	-0.001747	 0.077940
						CHANNELS 3 Zrotation Xrotation Yrotation
						End Site
						{
							OFFSET	 0.000000	-0.001747	 0.077940
						}
					}
				}
				JOINT RightShoulder
				{
					OFFSET	-0.080363	 0.000306	 0.159706
					CHANNELS 3 Zrotation Xrotation Yrotation
					JOINT RightArm
					{
						OFFSET	 0.000000	 0.000000	 0.164196
						CHANNELS 3 Zrotation Xrotation Yrotation
						JOINT RightForeArm
						{
							OFFSET	 0.000000	 0.000000	 0.365611
							CHANNELS 3 Zrotation Xrotation Yrotation
							JOINT RightHand
							{
								OFFSET	 0.000000	 0.000000	 0.360648
								CHANNELS 3 Zrotation Xrotation Yrotation
								JOINT RightHandIndex1
								{
									OFFSET	 0.000000	 0.000000	 0.069977
									CHANNELS 3 Zrotation Xrotation Yrotation
									JOINT RightHandIndex2
									{
										OFFSET	 0.000000	 0.000000	 0.052305
										CHANNELS 3 Zrotation Xrotation Yrotation
										JOINT RightHandIndex3
										{
											OFFSET	 0.009002	-0.000782	 0.042196
											CHANNELS 3 Zrotation Xrotation Yrotation
											End Site
											{
												OFFSET	 0.009002	-0.000782	 0.042196
											}
										}
									}
								}
							}
						}
					}
				}
			}
		}
	}
}
MOTION
Frames:    4
Frame Time: 0.03333334
-17.443190	-41.824870	 0.750016	-47.324300	 9.569386	 3.108477	 5.649728	-20.751170	 175.430400	-4.181615	-36.332960	-0.934107	-1.139865	 83.545940	-0.441005	-2.333922	 36.433650	-0.183847	-2.066658	-22.729210	-178.932700	-1.993810	-40.442320	-0.997351	-1.490251	 87.152560	 0.675938	 2.394300	 25.883820	-0.053323	 4.447355	 4.884924	-1.595736	 7.483068	 3.517332	-2.045835	 8.595181	 1.502020	 0.456938	-101.643100	 88.603100	-167.426700	 55.438610	 68.307520	-65.342620	-5.071811	-4.349619	-18.082680	 6.928940	-11.584370	-5.416850	-1.736733	-11.083160	 7.792963	-5.213516	-0.193813	 3.566525	-1.378229	 35.397820	-2.634230	 0.675164	 1.265291	 0.592307	 2.461128	 2.820720	 0.081886	 96.538310	 87.884090	 170.314000	-51.027200	 76.071910	 64.287430	-1.971550	-12.904310	 23.374810	-24.494750	-12.431990	 9.782226	-7.485242	-4.177485	-37.280250	 5.070815	-0.697434	-9.399699	-2.350882	 35.473990	 5.254307
-17.440080	-41.821580	 0.754149	-47.385860	 9.437163	 3.099552	 5.602728	-20.617810	 175.435400	-4.277010	-36.335420	-1.017504	-1.185406	 83.517380	-0.509500	-2.332914	 36.547790	-0.186671	-1.972854	-22.596940	-178.945700	-2.015509	-40.406870	-0.957535	-1.520901	 86.957210	 0.743245	 2.393016	 26.265340	-0.045309	 4.454444	 4.953852	-1.613733	 7.506612	 3.561302	-2.038989	 8.635977	 1.523832	 0.457470	-101.523200	 88.592500	-167.555500	 54.588370	 68.112110	-64.500140	-4.871557	-4.313482	-17.759890	 6.997883	-11.599060	-5.414402	-2.038389	-11.183770	 7.079298	-5.213516	-0.193813	 3.566525	-1.378229	 35.397820	-2.634230	 0.716674	 1.316998	 0.644016	 2.499131	 2.818534	 0.111403	 96.597640	 87.895510	 170.248900	-50.805440	 75.752120	 64.191670	-2.099135	-12.764630	 23.244540	-24.337390	-12.441520	 9.781865	-7.424612	-4.206584	-37.102740	 5.070815	-0.697434	-9.399699	-2.350882	 35.473990	 5.254307
-17.441580	-41.822190	 0.755356	-47.373870	 9.279821	 3.053991	 5.538991	-20.436430	 175.410600	-4.322299	-36.437070	-1.088243	-1.232729	 83.583110	-0.553891	-2.330890	 36.773390	-0.192283	-1.852094	-22.280580	-178.955900	-1.996312	-40.113870	-0.877307	-1.524947	 86.687370	 0.827377	 2.394213	 25.910410	-0.052765	 4.431667	 5.007057	-1.604903	 7.512351	 3.678263	-2.047288	 8.689137	 1.618199	 0.453145	-101.364100	 88.598210	-167.769900	 54.125470	 68.209640	-63.926990	-4.799141	-4.287861	-17.378860	 7.136535	-11.628850	-5.410952	-2.346125	-11.381320	 6.347971	-5.213516	-0.193813	 3.566525	-1.378229	 35.397820	-2.634230	 0.755125	 1.402683	 0.669198	 2.562068	 2.940072	 0.177601	 96.667920	 87.912310	 170.177500	-51.354900	 75.681740	 64.671610	-2.268806	-12.733870	 23.157380	-24.356110	-12.462700	 9.781666	-7.394443	-4.240982	-36.999360	 5.070815	-0.697434	-9.399699	-2.350882	 35.473990	 5.254307
-17.443540	-41.822780	 0.755009	-47.273540	 9.126036	 2.996047	 5.473204	-20.264960	 175.390200	-4.321658	-36.489820	-1.129893	-1.274289	 83.665590	-0.568705	-2.329135	 36.965890	-0.197090	-1.763300	-21.760690	-178.978600	-1.919613	-39.495430	-0.783121	-1.498995	 86.472630	 0.904092	 2.395177	 25.611630	-0.059020	 4.378642	 4.996393	-1.594644	 7.490653	 3.805555	-2.055089	 8.731166	 1.741225	 0.445974	-101.145400	 88.607730	-168.068700	 53.686410	 68.365020	-63.381310	-4.756533	-4.267238	-16.991280	 7.301683	-11.669390	-5.405877	-2.960621	-11.616760	 4.906903	-5.213516	-0.193813	 3.566525	-1.378229	 35.397820	-2.634230	 0.770339	 1.485703	 0.711648	 2.627937	 3.130945	 0.189893	 96.766670	 87.934270	 170.074800	-51.840040	 75.649770	 65.036590	-2.415383	-12.706320	 23.080160	-24.370420	-12.491700	 9.781904	-7.354364	-4.248204	-36.891170	 5.070815	-0.697434	-9.399699	-2.350882	 35.473990	 5.254307
